<?xml version="1.0" encoding="utf-8"?>
<!-- Generator: Adobe Illustrator 23.1.0, SVG Export Plug-In . SVG Version: 6.00 Build 0)  -->
<svg version="1.1" id="Logo" xmlns="http://www.w3.org/2000/svg" xmlns:xlink="http://www.w3.org/1999/xlink" x="0px" y="0px"
	 viewBox="0 0 1024 1024" style="enable-background:new 0 0 1024 1024;" xml:space="preserve">
<style type="text/css">
	.st0{fill:none;stroke:#000000;stroke-width:30;stroke-miterlimit:10;}
	.st1{fill:none;stroke:#FFC857;stroke-width:30;stroke-miterlimit:10;}
</style>
<path class="st0" d="M882,832H142c-11,0-20-8-20-17.77777V209.77777C122,200,131,192,142,192h740c11,0,20,8,20,17.77777v604.44446
	C902,824,893,832,882,832z"/>
<path class="st0" d="M465.98001,671.02002c20.01999-10.5,47.91-28.06,75.22-56.34003
	c23.82001-24.66998,39.25-49.27997,49.02002-67.90002"/>
<path class="st0" d="M589.41998,476.42001C569.76001,466.38,541.81,449.22,514.56,421
	c-23.89001-24.73999-39.04999-49.48999-48.44-67.88"/>
<path class="st0" d="M400,512c20.92001,6.19,50.87,12.64001,87.20001,12.67999C523.82001,524.71997,553.98999,518.21997,575,512"/>
<path class="st0" d="M625,287c-6.82001,19.76001-14.84003,50.48001-14.67999,88.64001C610.47998,412.66,618.27002,442.52002,625,462
	"/>
<path class="st0" d="M659.78003,477.22c10.59003-19.88998,28.02002-47.26001,55.69-74.20999
	c24.90002-24.25,49.75-40.03,68.54999-50.03"/>
<path class="st0" d="M783.08002,670.08002c-8.92999-18.47998-24.59003-45.44-51.08002-71.96002
	c-26.62-26.65002-53.69-42.39001-72.21997-51.34003"/>
<path class="st0" d="M675,512c20.53998-6.73001,51.71002-14.32001,90.12-13.95999C800.94,498.37,830.15997,505.5,850,512"/>
<path class="st0" d="M625,562c6.08002,20.52002,12.25,49.15002,12.67999,83.64001c0.47998,38.19-6.25,69.65002-12.67999,91.35999"/>
<circle class="st0" cx="625" cy="512" r="225"/>
<circle class="st0" cx="625" cy="512" r="50"/>
<path class="st1" d="M399.14691,923.19476c19.04669,11.94946,43.01794,10.66998,59.31262-2.65533
	c13.95306-11.39417,20.30194-30.00635,16.7775-46.88031c-4.75565-22.88495-27.18195-40.33844-53.8569-39.97626
	c-101.17181-0.53107-202.34361-1.06219-303.49127-1.5932c-21.55723-0.24133-40.2418-11.70801-47.53217-29.11316
	c-1.01389-2.43817-7.12136-17.62238,0-33.45837c7.62833-17.0188,27.25433-27.59229,49.12543-25.87823
	c92.07093,0.74829,168.54727,0.84485,228.2944,1.4483c15.25665,0.14484,43.5007,0.48285,56.82617-17.86383
	c10.47687-14.43579,12.55298-41.56946-5.11771-58.46759c-14.48416-13.83234-37.41739-16.14984-55.42603-5.09357"/>
<path class="st1" d="M100.9424,899.65802c64.09238,0,128.18472,0,192.27715,0c2.36575,0.14484,22.08832,1.66571,33.31351,18.61218
	c9.87335,14.87036,8.30426,34.20673-1.30359,47.79767c-11.5632,16.34302-32.66177,21.38824-49.48752,15.93256
	c-15.13593-4.90057-22.76425-16.99469-24.8886-20.66406"/>
</svg>
